HIERARCHY
ROOT Hips
{
	OFFSET 0.000000 0.000000 0.000000
	CHANNELS 6 Xposition Yposition Zposition Zrotation Yrotation Xrotation 
	JOINT LowerBack
	{
		OFFSET 0.000000 0.000000 0.000000
		CHANNELS 3 Zrotation Yrotation Xrotation
		JOINT Spine
		{
			OFFSET 0.028270 2.035590 -0.193380
			CHANNELS 3 Zrotation Yrotation Xrotation
			JOINT Spine1
			{
				OFFSET 0.056720 2.048850 -0.042750
				CHANNELS 3 Zrotation Yrotation Xrotation
				JOINT Neck
				{
					OFFSET 0.000000 0.000000 0.000000
					CHANNELS 3 Zrotation Yrotation Xrotation
					JOINT Neck1
					{
						OFFSET -0.054170 1.746240 0.172020
						CHANNELS 3 Zrotation Yrotation Xrotation
						JOINT Head
						{
							OFFSET 0.104070 1.761360 -0.123970
							CHANNELS 3 Zrotation Yrotation Xrotation
							End Site
							{
								OFFSET 0.000000 0.000000 0.000000
							}
						}
					}
				}
				JOINT LeftShoulder
				{
					OFFSET 0.000000 0.000000 0.000000
					CHANNELS 3 Zrotation Yrotation Xrotation
					JOINT LeftArm
					{
						OFFSET 3.362410 1.200890 -0.311210
						CHANNELS 3 Zrotation Yrotation Xrotation
						JOINT LeftForeArm
						{
							OFFSET 4.983000 -0.000000 -0.000000
							CHANNELS 3 Zrotation Yrotation Xrotation
							JOINT LeftHand
							{
								OFFSET 3.483560 -0.000000 -0.000000
								CHANNELS 3 Zrotation Yrotation Xrotation
								JOINT LeftFingerBase
								{
									OFFSET 0.000000 0.000000 0.000000
									CHANNELS 3 Zrotation Yrotation Xrotation
									JOINT LeftHandIndex1
									{
										OFFSET 0.715260 -0.000000 -0.000000
										CHANNELS 3 Zrotation Yrotation Xrotation
										End Site
										{
											OFFSET 0.000000 0.000000 0.000000
										}
									}
								}
								JOINT LThumb
								{
									OFFSET 0.000000 0.000000 0.000000
									CHANNELS 3 Zrotation Yrotation Xrotation
									End Site
									{
										OFFSET 0.000000 0.000000 0.000000
									}
								}
							}
						}
					}
				}
				JOINT RightShoulder
				{
					OFFSET 0.000000 0.000000 0.000000
					CHANNELS 3 Zrotation Yrotation Xrotation
					JOINT RightArm
					{
						OFFSET -3.136600 1.374050 -0.404650
						CHANNELS 3 Zrotation Yrotation Xrotation
						JOINT RightForeArm
						{
							OFFSET -5.241900 -0.000000 -0.000000
							CHANNELS 3 Zrotation Yrotation Xrotation
							JOINT RightHand
							{
								OFFSET -3.444170 -0.000000 -0.000000
								CHANNELS 3 Zrotation Yrotation Xrotation
								JOINT RightFingerBase
								{
									OFFSET 0.000000 0.000000 0.000000
									CHANNELS 3 Zrotation Yrotation Xrotation
									JOINT RightHandIndex1
									{
										OFFSET -0.622530 -0.000000 -0.000000
										CHANNELS 3 Zrotation Yrotation Xrotation
										End Site
										{
											OFFSET 0.000000 0.000000 0.000000
										}
									}
								}
								JOINT RThumb
								{
									OFFSET 0.000000 0.000000 0.000000
									CHANNELS 3 Zrotation Yrotation Xrotation
									End Site
									{
										OFFSET 0.000000 0.000000 0.000000
									}
								}
							}
						}
					}
				}
			}
		}
	}
}
}
MOTION
Frames: 13
Frame Time: 0.008333
17.267464 20.458310 1.626528 22.859861 -80.094138 -9.418735 -3.081204 -1.315804 -12.030747 -1.217393 -1.377538 -4.649198 -5.131483 -1.468374 1.263793 8.908500 -10.563165 -5.696521 -0.891308 -0.104065 0.638516 0.000000 0.000000 0.000000 14.186321 14.107118 -4.929520 -36.033529 -39.781926 -29.763365 177.721153 -64.849299 179.600487 30.647829 -35.608612 -10.687397 -0.395485 1.552362 0.000000 0.000000 0.000000 0.000000 0.000000 0.000000 0.000000 -5.390113 -11.239862 -2.251174 43.491144 17.990453 -58.147350 -177.768370 51.442561 179.751987 -30.708001 30.714620 -9.152678 0.560994 -1.243355 -0.000000 0.000000 0.000000 0.000000 0.000000 0.000000 0.000000 
17.133551 20.543059 1.615517 22.449317 -80.319267 -9.367158 -3.011639 -1.294597 -11.857817 -1.176624 -1.369289 -4.586994 -4.933943 -1.474445 1.381194 8.719012 -10.858099 -5.857376 -0.806203 -0.095238 0.593397 0.000000 0.000000 0.000000 14.351950 14.920981 -5.064755 -34.619606 -39.690977 -33.497955 177.522126 -62.655204 179.598926 32.030691 -36.478887 -11.485009 -0.434520 1.580274 -0.000000 0.000000 0.000000 0.000000 0.000000 0.000000 0.000000 -5.787585 -12.004768 -2.288767 42.030360 18.372556 -60.739647 -177.687620 50.205626 179.756081 -33.544178 32.378801 -10.598932 0.628095 -1.270921 -0.000000 0.000000 0.000000 0.000000 0.000000 0.000000 0.000000 
16.997533 20.619879 1.606475 21.734041 -80.547519 -8.946574 -2.888141 -1.268121 -11.727077 -1.125279 -1.361041 -4.531977 -4.744756 -1.479300 1.500086 8.545158 -11.184250 -6.031969 -0.731803 -0.086926 0.544757 0.000000 0.000000 0.000000 14.455493 15.737586 -5.165216 -33.183882 -39.541100 -37.274036 177.357413 -60.545992 179.601217 33.477975 -37.212026 -12.289976 -0.479691 1.603523 -0.000000 0.000000 0.000000 0.000000 0.000000 0.000000 0.000000 -6.073722 -12.787563 -2.337757 40.483200 18.725804 -63.190068 -177.622513 49.053608 179.763741 -36.372979 33.797321 -12.063706 0.694490 -1.292276 -0.000000 0.000000 0.000000 0.000000 0.000000 0.000000 0.000000 
16.858677 20.689996 1.600189 20.657224 -80.776894 -8.110445 -2.700522 -1.234406 -11.643866 -1.061425 -1.351712 -4.485399 -4.566750 -1.481239 1.619520 8.386321 -11.533006 -6.216196 -0.668007 -0.079195 0.493751 0.000000 0.000000 0.000000 14.489327 16.550526 -5.231787 -31.753058 -39.327458 -41.050855 177.232741 -58.528273 179.607346 34.971844 -37.839230 -13.101791 -0.530137 1.622775 -0.000000 0.000000 0.000000 0.000000 0.000000 0.000000 0.000000 -6.260032 -13.573457 -2.400739 38.857885 19.037734 -65.459993 -177.572724 47.975053 179.774347 -39.103792 35.011189 -13.509605 0.758403 -1.309420 -0.000000 0.000000 0.000000 0.000000 0.000000 0.000000 0.000000 
16.716595 20.754569 1.597366 19.166673 -81.000242 -6.816012 -2.440749 -1.193037 -11.609901 -0.983106 -1.341563 -4.448187 -4.401161 -1.480073 1.737627 8.239774 -11.893093 -6.406088 -0.613911 -0.072056 0.441457 0.000000 0.000000 0.000000 14.450426 17.350950 -5.265922 -30.357168 -39.043637 -44.781372 177.150220 -56.608872 179.617056 36.493333 -38.377441 -13.915149 -0.584872 1.638584 -0.000000 0.000000 0.000000 0.000000 0.000000 0.000000 0.000000 -6.365529 -14.345105 -2.478121 37.168431 19.295453 -67.515131 -177.537845 46.958638 179.787100 -41.650226 36.069267 -14.903436 0.818285 -1.324659 -0.000000 0.000000 0.000000 0.000000 0.000000 0.000000 0.000000 
16.571353 20.814527 1.598473 17.235222 -81.204890 -5.049945 -2.107583 -1.145211 -11.622478 -0.889536 -1.331802 -4.420678 -4.248056 -1.476776 1.851987 8.102359 -12.253731 -6.598319 -0.568180 -0.065473 0.388720 0.000000 0.000000 0.000000 14.343468 18.127905 -5.270098 -29.029750 -38.682137 -48.411743 177.107832 -54.791937 179.629837 38.019337 -38.831831 -14.718952 -0.642781 1.651460 -0.000000 0.000000 0.000000 0.000000 0.000000 0.000000 0.000000 -6.412091 -15.086049 -2.568576 35.436530 19.488218 -69.325728 -177.517227 45.997295 179.801079 -43.936334 37.018782 -16.216702 0.872833 -1.340206 0.000000 0.000000 0.000000 0.000000 0.000000 0.000000 0.000000 
16.422827 20.870069 1.603412 14.902957 -81.373039 -2.861810 -1.712416 -1.094132 -11.675728 -0.782411 -1.324450 -4.402645 -4.106306 -1.473489 1.960672 7.972626 -12.606240 -6.790131 -0.528720 -0.059343 0.336198 0.000000 0.000000 0.000000 14.185304 18.868469 -5.247814 -27.807736 -38.233812 -51.881603 177.099617 -53.083692 179.644913 39.522168 -39.198914 -15.495907 -0.702538 1.661764 -0.000000 0.000000 0.000000 0.000000 0.000000 0.000000 0.000000 -6.423157 -15.782681 -2.668704 33.694383 19.606036 -70.865710 -177.510088 45.088192 179.815310 -45.900253 37.900632 -17.425604 0.920984 -1.358000 -0.000000 0.000000 0.000000 0.000000 0.000000 0.000000 0.000000 
16.271457 20.921040 1.611422 12.295153 -81.484043 -0.390149 -1.281903 -1.044920 -11.758816 -0.666747 -1.321995 -4.392968 -3.974070 -1.473213 2.061661 7.852431 -12.943815 -6.978863 -0.492865 -0.053510 0.284486 0.000000 0.000000 0.000000 14.006368 19.555957 -5.203373 -26.730072 -37.687665 -55.124457 177.116253 -51.490714 179.661273 40.969515 -39.469882 -16.224126 -0.762614 1.669756 -0.000000 0.000000 0.000000 0.000000 0.000000 0.000000 0.000000 -6.421451 -16.424244 -2.773058 31.984638 19.640317 -72.115325 -177.515216 44.227779 179.828875 -47.499002 38.743073 -18.509938 0.962081 -1.379525 -0.000000 0.000000 0.000000 0.000000 0.000000 0.000000 0.000000 
16.117665 20.967148 1.621149 9.629968 -81.521013 2.134859 -0.855792 -1.003512 -11.858741 -0.550657 -1.326557 -4.389684 -3.849355 -1.478944 2.154541 7.747511 -13.266647 -7.163009 -0.457788 -0.047779 0.233863 0.000000 0.000000 0.000000 13.846220 20.176697 -5.141950 -25.834037 -37.038900 -58.070643 177.146771 -50.018221 179.677816 42.327796 -39.647251 -16.884831 -0.821241 1.675891 -0.000000 0.000000 0.000000 0.000000 0.000000 0.000000 0.000000 -6.422929 -17.008914 -2.875989 30.356938 19.591136 -73.057408 -177.531427 43.418804 179.841005 -48.710068 39.564960 -19.454098 0.995632 -1.405583 -0.000000 0.000000 0.000000 0.000000 0.000000 0.000000 0.000000 
15.961856 21.007683 1.630903 7.164154 -81.474020 4.446106 -0.478980 -0.975664 -11.960486 -0.443801 -1.339536 -4.390132 -3.730523 -1.493130 2.239633 7.666603 -13.575329 -7.340957 -0.421145 -0.041982 0.184668 0.000000 0.000000 0.000000 13.747344 20.717048 -5.068642 -25.152116 -36.288323 -60.649797 177.180537 -48.669391 179.693447 43.562715 -39.739880 -17.462243 -0.876603 1.680791 -0.000000 0.000000 0.000000 0.000000 0.000000 0.000000 0.000000 -6.437356 -17.536773 -2.971058 28.861630 19.458983 -73.684914 -177.557520 42.660377 179.851181 -49.532704 40.373203 -20.247178 1.021575 -1.436387 -0.000000 0.000000 0.000000 0.000000 0.000000 0.000000 0.000000 
15.804659 21.042015 1.639094 5.111768 -81.343254 6.318993 -0.189128 -0.965393 -12.048923 -0.354668 -1.361086 -4.391418 -3.616271 -1.516828 2.317400 7.617161 -13.868223 -7.510613 -0.381524 -0.036032 0.137406 0.000000 0.000000 0.000000 13.746346 21.163871 -4.987511 -24.707382 -35.440383 -62.799621 177.209084 -47.440777 179.707237 44.643254 -39.763894 -17.946182 -0.927125 1.685332 -0.000000 0.000000 0.000000 0.000000 0.000000 0.000000 0.000000 -6.470840 -18.006315 -3.052131 27.542887 19.241867 -74.002852 -177.591968 41.950096 179.859180 -49.989592 41.166563 -20.885668 1.040233 -1.471568 -0.000000 0.000000 0.000000 0.000000 0.000000 0.000000 0.000000 
15.646660 21.069725 1.644677 3.590901 -81.138924 7.628905 -0.009273 -0.973814 -12.112734 -0.289131 -1.389703 -4.390510 -3.506875 -1.549016 2.390744 7.605574 -14.150990 -7.672166 -0.338680 -0.029891 0.091986 0.000000 0.000000 0.000000 13.858329 21.522591 -4.903789 -24.503795 -34.526583 -64.466883 177.227927 -46.325978 179.718600 45.545186 -39.760717 -18.342761 -0.971306 1.691028 -0.000000 0.000000 0.000000 0.000000 0.000000 0.000000 0.000000 -6.518495 -18.426044 -3.117040 26.430866 18.956690 -74.021173 -177.633770 41.288570 179.865048 -50.119403 41.946632 -21.376763 1.051963 -1.510406 -0.000000 0.000000 0.000000 0.000000 0.000000 0.000000 0.000000 
15.488376 21.091058 1.647185 2.595906 -80.877517 8.379742 0.058153 -0.998679 -12.144463 -0.248839 -1.422341 -4.385082 -3.403295 -1.586600 2.462268 7.633130 -14.423766 -7.825662 -0.293552 -0.023621 0.048377 0.000000 0.000000 0.000000 14.081250 21.802489 -4.821636 -24.531027 -33.582397 -65.616478 177.236614 -45.312577 179.727255 46.249005 -39.771865 -18.662586 -1.008160 1.699554 -0.000000 0.000000 0.000000 0.000000 0.000000 0.000000 0.000000 -6.575520 -18.799143 -3.164771 25.541059 18.617226 -73.763788 -177.681821 40.668998 179.869061 -49.975608 42.714373 -21.737059 1.057528 -1.552132 -0.000000 0.000000 0.000000 0.000000 0.000000 0.000000 0.000000 
